# xmcd CD database file
#
# Track frame offsets:
#	150
#	10558
#	21760
#	36076
#	46930
#	60967
#	71841
#	79999
#	90121
#	101135
#	113883
#	128860
#	138571
#	149243
#	162625
#	176599
#	189605
#	203558
#	212970
#	225063
#	233583
#	244360
#	254816
#	266666
#	278780
#
# Disc length: 3888 seconds
#
# Submitted via: cddb-tool 0.4.7
#
#blues,classical,country,data,folk,jazz,newage,reggae,rock,soundtrack,misc
#CATEGORY=blues
# Revision: 0
# Processed by: cddbd v1.5.2PL0 Copyright (c) Steve Scherf et al.
#
DISCID=690f2e19
DTITLE=Various Artist - Atlas Jump Blues Anthology
DYEAR=2009
DGENRE=Jump Blues
TTITLE0=Louisiana Red - I Done Woke Up
TTITLE1=Mojo Watson - You Know You Don't Want Me
TTITLE2=H-Bomb Ferguson - On My Way
TTITLE3=James Wayne - This LIttle Letter
TTITLE4=Charlie Walker - Down Hearted Blues
TTITLE5=H-Bomb Ferguson - Good Time Gal
TTITLE6=Jimmy 'Chickie' Horne - Hello Little Girl
TTITLE7=Hattie Green - Over Twenty One
TTITLE8=Piney Brown - You Made Me This Way
TTITLE9=Mae Mercer - Sweet Little Angel
TTITLE10=Johnny Percy Orchestra - I Left My Baby
TTITLE11=H-Bomb Ferguson - Rock H-Bomb Rock
TTITLE12=Hattie Green - Green Light Baby
TTITLE13=Charlie Walker - Nervous Wreck
TTITLE14=Emmet Davis - Woke Up This Morning 
TTITLE15=Johnny Perry Orchestra - Lonely Heart Blues
TTITLE16=Mojo Watson - All Alone
TTITLE17=Mae Mercer - Great Googa Mooga
TTITLE18=Charlie Walker - Wrong Kind Of Woman
TTITLE19=Louisiana Red - I Had A Feeling
TTITLE20=Hattie Green - Pawn Shop blues
TTITLE21=James Wayne - The Trust
TTITLE22=Emmet Davis - You Know You Didn't Want Me
TTITLE23=Charlie Walker - Louise
TTITLE24=H-Bomb Ferguson - I Love My Baby
EXTD=
EXTT0=
EXTT1=
EXTT2=
EXTT3=
EXTT4=
EXTT5=
EXTT6=
EXTT7=
EXTT8=
EXTT9=
EXTT10=
EXTT11=
EXTT12=
EXTT13=
EXTT14=
EXTT15=
EXTT16=
EXTT17=
EXTT18=
EXTT19=
EXTT20=
EXTT21=
EXTT22=
EXTT23=
EXTT24=
PLAYORDER=
